<svg width="250" height="250" viewBox="0 0 250 250" fill="none" xmlns="http://www.w3.org/2000/svg">
<circle cx="125" cy="125" r="125" fill="url(#paint0_linear_203_70)"/>
<path d="M139.212 127.712L120.045 146.879C119.689 147.235 119.266 147.517 118.801 147.71C118.336 147.903 117.837 148.002 117.333 148.002C116.83 148.002 116.331 147.903 115.866 147.71C115.4 147.517 114.977 147.235 114.621 146.879C114.265 146.523 113.983 146.1 113.79 145.634C113.597 145.169 113.498 144.67 113.498 144.167C113.498 143.663 113.597 143.164 113.79 142.699C113.983 142.234 114.265 141.811 114.621 141.455L127.247 128.833H82.8333C81.8167 128.833 80.8416 128.429 80.1228 127.711C79.4039 126.992 79 126.017 79 125C79 123.983 79.4039 123.008 80.1228 122.289C80.8416 121.571 81.8167 121.167 82.8333 121.167H127.247L114.621 108.545C113.902 107.826 113.498 106.851 113.498 105.833C113.498 104.816 113.902 103.841 114.621 103.121C115.341 102.402 116.316 101.998 117.333 101.998C118.351 101.998 119.326 102.402 120.045 103.121L139.212 122.288C139.568 122.644 139.851 123.067 140.044 123.532C140.237 123.997 140.336 124.496 140.336 125C140.336 125.504 140.237 126.003 140.044 126.468C139.851 126.933 139.568 127.356 139.212 127.712ZM167.167 79H136.5C135.483 79 134.508 79.4039 133.789 80.1228C133.071 80.8416 132.667 81.8167 132.667 82.8333C132.667 83.85 133.071 84.825 133.789 85.5439C134.508 86.2628 135.483 86.6667 136.5 86.6667H163.333V163.333H136.5C135.483 163.333 134.508 163.737 133.789 164.456C133.071 165.175 132.667 166.15 132.667 167.167C132.667 168.183 133.071 169.158 133.789 169.877C134.508 170.596 135.483 171 136.5 171H167.167C168.183 171 169.158 170.596 169.877 169.877C170.596 169.158 171 168.183 171 167.167V82.8333C171 81.8167 170.596 80.8416 169.877 80.1228C169.158 79.4039 168.183 79 167.167 79Z" fill="white"/>
<defs>
<linearGradient id="paint0_linear_203_70" x1="125" y1="0" x2="210.541" y2="272.465" gradientUnits="userSpaceOnUse">
<stop offset="0.687648" stop-color="#F60724"/>
<stop offset="1" stop-color="#A51374"/>
</linearGradient>
</defs>
</svg>
