<svg width="250" height="250" viewBox="0 0 250 250" fill="none" xmlns="http://www.w3.org/2000/svg">
<circle cx="125" cy="125" r="125" fill="url(#paint0_linear_203_207)"/>
<path d="M124.763 131.25C123.088 131.25 121.627 130.627 120.381 129.381C119.135 128.135 118.51 126.675 118.506 125C118.502 123.325 119.127 121.865 120.381 120.619C121.635 119.373 123.094 118.75 124.756 118.75C126.419 118.75 127.881 119.373 129.144 120.619C130.406 121.865 131.029 123.325 131.013 125C130.996 126.675 130.371 128.135 129.138 129.381C127.904 130.627 126.446 131.25 124.763 131.25ZM124.763 175C112.046 175 100.975 170.835 91.55 162.506C82.125 154.177 76.6729 143.758 75.1938 131.25H81.5125C83.2125 142 88.1271 150.938 96.2563 158.063C104.385 165.188 113.885 168.75 124.756 168.75C136.948 168.75 147.288 164.506 155.775 156.019C164.263 147.531 168.508 137.192 168.513 125C168.517 112.808 164.271 102.469 155.775 93.9813C147.279 85.4938 136.942 81.25 124.763 81.25C118.292 81.25 112.212 82.6167 106.525 85.35C100.837 88.0792 95.8167 91.8396 91.4625 96.6313H106.969V102.881H81.0125V76.9313H87.2625V91.8563C92.0958 86.5521 97.7583 82.4187 104.25 79.4562C110.742 76.4937 117.579 75.0083 124.763 75C131.7 75 138.198 76.3042 144.256 78.9125C150.315 81.5208 155.608 85.0917 160.138 89.625C164.667 94.1583 168.238 99.45 170.85 105.5C173.463 111.55 174.767 118.048 174.763 124.994C174.758 131.94 173.454 138.44 170.85 144.494C168.246 150.548 164.675 155.844 160.138 160.381C155.6 164.919 150.306 168.488 144.256 171.088C138.206 173.688 131.713 174.992 124.763 175Z" fill="white"/>
<defs>
<linearGradient id="paint0_linear_203_207" x1="125" y1="0" x2="210.541" y2="272.465" gradientUnits="userSpaceOnUse">
<stop offset="0.687648" stop-color="#F60724"/>
<stop offset="1" stop-color="#A51374"/>
</linearGradient>
</defs>
</svg>
