<svg width="250" height="250" viewBox="0 0 250 250" fill="none" xmlns="http://www.w3.org/2000/svg">
<circle cx="125" cy="125" r="125" transform="matrix(-1 0 0 1 250 0)" fill="url(#paint0_linear_203_125)"/>
<path d="M164.527 158.203C158.352 147.531 148.656 140.043 137.391 136.867C142.868 134.083 147.248 129.535 149.824 123.957C152.4 118.379 153.023 112.096 151.591 106.121C150.16 100.146 146.758 94.8274 141.933 91.0225C137.109 87.2175 131.144 85.1482 125 85.1482C118.856 85.1482 112.891 87.2175 108.067 91.0225C103.242 94.8274 99.8402 100.146 98.4087 106.121C96.9772 112.096 97.5998 118.379 100.176 123.957C102.752 129.535 107.132 134.083 112.609 136.867C101.344 140.039 91.6484 147.527 85.4726 158.203C85.3031 158.47 85.1892 158.768 85.1379 159.08C85.0866 159.392 85.0989 159.711 85.1741 160.018C85.2493 160.325 85.3858 160.614 85.5755 160.867C85.7651 161.12 86.004 161.331 86.2776 161.49C86.5513 161.648 86.8542 161.749 87.1679 161.787C87.4817 161.825 87.8 161.8 88.1036 161.711C88.4072 161.623 88.6898 161.475 88.9345 161.275C89.1791 161.075 89.3808 160.827 89.5273 160.547C97.0312 147.582 110.289 139.844 125 139.844C139.711 139.844 152.969 147.582 160.473 160.547C160.619 160.827 160.821 161.075 161.065 161.275C161.31 161.475 161.593 161.623 161.896 161.711C162.2 161.8 162.518 161.825 162.832 161.787C163.146 161.749 163.449 161.648 163.722 161.49C163.996 161.331 164.235 161.12 164.424 160.867C164.614 160.614 164.751 160.325 164.826 160.018C164.901 159.711 164.913 159.392 164.862 159.08C164.811 158.768 164.697 158.47 164.527 158.203ZM102.344 112.5C102.344 108.019 103.672 103.639 106.162 99.9129C108.651 96.1871 112.19 93.2832 116.33 91.5684C120.47 89.8536 125.025 89.4049 129.42 90.2791C133.815 91.1533 137.852 93.3111 141.02 96.4796C144.189 99.6482 146.347 103.685 147.221 108.08C148.095 112.475 147.646 117.03 145.932 121.17C144.217 125.31 141.313 128.848 137.587 131.338C133.861 133.827 129.481 135.156 125 135.156C118.993 135.149 113.235 132.76 108.988 128.512C104.74 124.265 102.351 118.507 102.344 112.5Z" fill="white"/>
<defs>
<linearGradient id="paint0_linear_203_125" x1="125" y1="0" x2="210.541" y2="272.465" gradientUnits="userSpaceOnUse">
<stop offset="0.687648" stop-color="#F60724"/>
<stop offset="1" stop-color="#A51374"/>
</linearGradient>
</defs>
</svg>
